<svg width="31" height="31" viewBox="0 0 31 31" fill="none" xmlns="http://www.w3.org/2000/svg">
<path d="M15.1705 30.2994C6.82724 30.2994 0.0390625 23.5116 0.0390625 15.1683C0.0390625 6.82495 6.82724 0.0371094 15.1705 0.0371094C23.5135 0.0371094 30.3014 6.82495 30.3014 15.1683C30.3014 23.5116 23.5135 30.2994 15.1705 30.2994ZM15.1705 1.89809C7.85335 1.89809 1.90004 7.8514 1.90004 15.1683C1.90004 22.4855 7.85335 28.4381 15.1705 28.4381C22.4877 28.4381 28.44 22.4855 28.44 15.1683C28.44 7.85106 22.4874 1.89809 15.1705 1.89809Z" fill="black"/>
<path fill-rule="evenodd" clip-rule="evenodd" d="M17.4892 11.4681C17.4892 10.5681 16.9861 10.0135 16.3179 9.77452C16.2349 9.74495 16.1495 9.7194 16.0625 9.69789V14.4066C17.9974 15.0261 19.7754 15.8193 19.7754 18.3578C19.7754 20.3902 18.475 21.706 16.8446 22.2777C16.5912 22.3668 16.329 22.4367 16.0625 22.4881V23.4389H14.1857V22.5379C13.8593 22.4925 13.5411 22.4179 13.2379 22.314C11.7228 21.7958 10.5632 20.5966 10.5632 18.6872H12.4397C12.4397 19.6548 13.0467 20.2689 13.8392 20.5401C13.9518 20.5784 14.0677 20.611 14.186 20.6372V15.7809C12.3193 15.1773 10.651 14.4002 10.651 12.0045C10.651 9.99467 11.9372 8.65666 13.5206 8.07017C13.7363 7.99018 13.9592 7.92497 14.1857 7.87422V6.89752H16.0625V7.79289C16.3683 7.83591 16.6661 7.9075 16.9484 8.00799C18.3278 8.50105 19.366 9.63504 19.366 11.4685H17.4892V11.4681ZM14.1857 9.82225L14.1655 9.82964C13.2618 10.1644 12.5274 10.9068 12.5274 12.0045C12.5274 12.9302 13.248 13.4246 14.1857 13.7933V9.82225ZM17.8986 18.3578C17.8986 17.3098 17.0862 16.7795 16.0625 16.3899V20.565C16.1183 20.5485 16.1737 20.5303 16.2288 20.5115C17.1578 20.1858 17.8986 19.4599 17.8986 18.3578Z" fill="black"/>
</svg>
