<svg width="30" height="30" viewBox="0 0 30 30" fill="none" xmlns="http://www.w3.org/2000/svg">
<mask id="path-1-inside-1_751:1535" fill="white">
<path d="M21.4599 9.80534C21.4277 9.74224 21.3851 9.68356 21.3309 9.6344C21.2765 9.5854 21.2156 9.54944 21.1521 9.52667L17.8157 8.32753C17.5832 8.24398 17.3343 8.19918 17.0751 8.2015C16.8163 8.20428 16.5685 8.25401 16.3372 8.34203L13.8057 9.30775C13.6275 9.37589 13.4506 9.45422 13.2761 9.54337C13.2179 9.57351 13.1606 9.60619 13.1036 9.63819C12.9125 9.53465 12.713 9.44346 12.5047 9.36586C11.8406 9.11761 11.1606 9.03384 10.5024 9.09008L8.79926 9.23627C8.72518 9.24267 8.65035 9.26555 8.58046 9.30662C8.51056 9.3478 8.45285 9.40336 8.40748 9.46759L4.57251 14.927C4.4935 15.0391 4.4513 15.1818 4.46421 15.3327C4.47684 15.4837 4.54181 15.616 4.63776 15.7112L6.30583 17.3644C6.21435 17.5319 6.15635 17.7199 6.14299 17.9211C6.11891 18.2828 6.23769 18.6319 6.47632 18.9044C6.71528 19.1767 7.04572 19.3398 7.40766 19.3634C7.42692 19.3647 7.44651 19.3647 7.46611 19.3655C7.31777 19.845 7.43915 20.3896 7.82555 20.7553C8.05682 20.9743 8.35333 21.1019 8.66842 21.1223C8.46542 21.6254 8.57519 22.2254 8.99003 22.618C9.24304 22.8578 9.57394 22.9896 9.92267 22.9896C10.2857 22.9896 10.6244 22.8477 10.8802 22.5917C10.9753 23.2062 11.4859 23.6962 12.1316 23.7384C12.1613 23.7404 12.1918 23.7417 12.2215 23.7417C12.3865 23.7417 12.5446 23.7106 12.6915 23.6557C12.9316 23.8158 13.2179 23.904 13.5225 23.8916C13.8969 23.876 14.2327 23.7108 14.4839 23.4524L13.5665 22.5371C13.5686 22.5159 13.5725 22.4956 13.5734 22.4737C13.5853 22.2939 13.5607 22.1199 13.5072 21.9582L15.3848 23.831C15.6217 23.9274 15.8795 23.9757 16.148 23.9649C16.6854 23.943 17.1641 23.6892 17.5031 23.2966L17.691 23.0786C17.7084 23.058 17.7217 23.0348 17.7333 23.0099L14.8424 20.127C14.7679 20.0532 14.7619 19.9304 14.8281 19.8531C14.8944 19.7762 15.0092 19.7736 15.0831 19.8474L18.5212 23.276C18.7086 23.3417 18.9091 23.3737 19.1175 23.3651C19.5899 23.3458 20.0114 23.1227 20.3094 22.7768L20.7633 22.2514C20.8675 22.1302 20.9295 21.9666 20.9237 21.7889L17.9067 18.781C17.833 18.707 17.8264 18.5839 17.8925 18.5072C17.9592 18.4302 18.0737 18.4276 18.1475 18.5014L21.1788 21.5239C21.3031 21.5571 21.4338 21.5734 21.5681 21.568C21.9554 21.5524 22.2999 21.3697 22.5438 21.0865L22.6657 20.9452C22.9097 20.6627 23.0536 20.2798 23.0389 19.8635C23.0242 19.4474 22.8545 19.0776 22.5915 18.8152L21.7823 18.0084L21.9867 18.2119L24.1748 16.2361C24.2677 16.1526 24.3351 16.0356 24.3598 15.8982C24.3843 15.7609 24.3621 15.6253 24.3051 15.5106L21.4599 9.80534ZM7.44566 18.7784C7.24051 18.765 7.05286 18.6725 6.91698 18.5177C6.78127 18.3633 6.71426 18.165 6.72791 17.9594C6.75385 17.5559 7.09172 17.2399 7.49511 17.2399C7.51222 17.2399 7.5296 17.2404 7.54671 17.2414C7.75186 17.2551 7.93951 17.3474 8.07539 17.5022C8.2111 17.657 8.27811 17.855 8.26491 18.0607C8.23676 18.4813 7.8712 18.8068 7.44566 18.7784ZM8.75746 20.5402C8.55984 20.5402 8.37191 20.4656 8.22838 20.3297C7.92371 20.0418 7.90723 19.5565 8.18998 19.2497C8.20465 19.2344 8.50507 18.9166 8.64922 18.7649L8.72489 18.6844C8.87193 18.5293 9.07057 18.4437 9.28428 18.4437C9.48206 18.4437 9.67011 18.5187 9.81336 18.6548C9.96283 18.796 10.0485 18.987 10.0541 19.1929C10.0597 19.3981 9.98492 19.5937 9.84366 19.7428L9.62933 19.9694C9.58351 20.0175 9.53434 20.0696 9.48405 20.1227C9.47606 20.1317 9.46723 20.1406 9.45952 20.149C9.42214 20.1884 9.38906 20.2231 9.3634 20.25C9.34873 20.2658 9.33412 20.2816 9.31905 20.2969C9.31526 20.3008 9.31209 20.3046 9.31209 20.3046C9.16624 20.4566 8.9689 20.5402 8.75746 20.5402ZM10.4767 22.1679C10.3304 22.3199 10.1337 22.4033 9.92239 22.4033C9.7246 22.4033 9.53627 22.3284 9.39314 22.1924C9.08864 21.9044 9.07199 21.4192 9.35383 21.1139C9.36051 21.1066 9.53695 20.9199 9.73689 20.7089L9.88535 20.552C10.1453 20.2768 10.2306 20.1873 10.2593 20.1561C10.2626 20.1531 10.2665 20.1494 10.2693 20.1463C10.2944 20.1191 10.31 20.1032 10.31 20.1032C10.4568 19.948 10.6557 19.8623 10.8696 19.8623C11.0674 19.8623 11.255 19.9372 11.3987 20.0732C11.5481 20.2147 11.6334 20.4058 11.6391 20.6111C11.6447 20.8172 11.5699 21.0126 11.4281 21.1624C11.4145 21.177 10.5065 22.1363 10.4767 22.1679ZM12.9887 22.4356C12.9608 22.8559 12.5959 23.1819 12.1697 23.1539C11.746 23.1257 11.4238 22.7583 11.4518 22.3349C11.4783 21.9311 11.8149 21.6151 12.2188 21.6151C12.2359 21.6151 12.2533 21.6157 12.2704 21.6167C12.6941 21.6446 13.0163 22.012 12.9887 22.4356ZM21.5839 17.8105L15.5905 11.8351L15.658 11.6644C15.693 11.5754 15.6885 11.4702 15.6373 11.3818C15.586 11.2937 15.5001 11.2423 15.4102 11.2376L14.9648 11.2109L14.4782 11.182L14.4412 11.7589C14.4408 11.7709 14.3444 13.0826 13.6755 14.2677C12.9898 15.4838 12.0812 15.9031 11.9428 15.9301C11.788 15.9601 11.6258 15.9886 11.4909 15.9886C11.3983 15.9886 11.327 15.9756 11.2659 15.9476L11.0384 15.8422C10.9429 15.798 10.8702 15.7168 10.8318 15.6133C10.7943 15.5134 10.7948 15.4042 10.8318 15.3046L13.1113 10.3018L13.4989 10.0465L13.6551 9.98698L16.5197 8.89427C16.6998 8.82568 16.8884 8.78972 17.08 8.78796L17.0959 8.78779C17.2818 8.78779 17.466 8.81996 17.6423 8.88351L20.9789 10.0827L23.8245 15.7877L21.5839 17.8105Z"/>
</mask>
<path d="M21.4599 9.80534C21.4277 9.74224 21.3851 9.68356 21.3309 9.6344C21.2765 9.5854 21.2156 9.54944 21.1521 9.52667L17.8157 8.32753C17.5832 8.24398 17.3343 8.19918 17.0751 8.2015C16.8163 8.20428 16.5685 8.25401 16.3372 8.34203L13.8057 9.30775C13.6275 9.37589 13.4506 9.45422 13.2761 9.54337C13.2179 9.57351 13.1606 9.60619 13.1036 9.63819C12.9125 9.53465 12.713 9.44346 12.5047 9.36586C11.8406 9.11761 11.1606 9.03384 10.5024 9.09008L8.79926 9.23627C8.72518 9.24267 8.65035 9.26555 8.58046 9.30662C8.51056 9.3478 8.45285 9.40336 8.40748 9.46759L4.57251 14.927C4.4935 15.0391 4.4513 15.1818 4.46421 15.3327C4.47684 15.4837 4.54181 15.616 4.63776 15.7112L6.30583 17.3644C6.21435 17.5319 6.15635 17.7199 6.14299 17.9211C6.11891 18.2828 6.23769 18.6319 6.47632 18.9044C6.71528 19.1767 7.04572 19.3398 7.40766 19.3634C7.42692 19.3647 7.44651 19.3647 7.46611 19.3655C7.31777 19.845 7.43915 20.3896 7.82555 20.7553C8.05682 20.9743 8.35333 21.1019 8.66842 21.1223C8.46542 21.6254 8.57519 22.2254 8.99003 22.618C9.24304 22.8578 9.57394 22.9896 9.92267 22.9896C10.2857 22.9896 10.6244 22.8477 10.8802 22.5917C10.9753 23.2062 11.4859 23.6962 12.1316 23.7384C12.1613 23.7404 12.1918 23.7417 12.2215 23.7417C12.3865 23.7417 12.5446 23.7106 12.6915 23.6557C12.9316 23.8158 13.2179 23.904 13.5225 23.8916C13.8969 23.876 14.2327 23.7108 14.4839 23.4524L13.5665 22.5371C13.5686 22.5159 13.5725 22.4956 13.5734 22.4737C13.5853 22.2939 13.5607 22.1199 13.5072 21.9582L15.3848 23.831C15.6217 23.9274 15.8795 23.9757 16.148 23.9649C16.6854 23.943 17.1641 23.6892 17.5031 23.2966L17.691 23.0786C17.7084 23.058 17.7217 23.0348 17.7333 23.0099L14.8424 20.127C14.7679 20.0532 14.7619 19.9304 14.8281 19.8531C14.8944 19.7762 15.0092 19.7736 15.0831 19.8474L18.5212 23.276C18.7086 23.3417 18.9091 23.3737 19.1175 23.3651C19.5899 23.3458 20.0114 23.1227 20.3094 22.7768L20.7633 22.2514C20.8675 22.1302 20.9295 21.9666 20.9237 21.7889L17.9067 18.781C17.833 18.707 17.8264 18.5839 17.8925 18.5072C17.9592 18.4302 18.0737 18.4276 18.1475 18.5014L21.1788 21.5239C21.3031 21.5571 21.4338 21.5734 21.5681 21.568C21.9554 21.5524 22.2999 21.3697 22.5438 21.0865L22.6657 20.9452C22.9097 20.6627 23.0536 20.2798 23.0389 19.8635C23.0242 19.4474 22.8545 19.0776 22.5915 18.8152L21.7823 18.0084L21.9867 18.2119L24.1748 16.2361C24.2677 16.1526 24.3351 16.0356 24.3598 15.8982C24.3843 15.7609 24.3621 15.6253 24.3051 15.5106L21.4599 9.80534ZM7.44566 18.7784C7.24051 18.765 7.05286 18.6725 6.91698 18.5177C6.78127 18.3633 6.71426 18.165 6.72791 17.9594C6.75385 17.5559 7.09172 17.2399 7.49511 17.2399C7.51222 17.2399 7.5296 17.2404 7.54671 17.2414C7.75186 17.2551 7.93951 17.3474 8.07539 17.5022C8.2111 17.657 8.27811 17.855 8.26491 18.0607C8.23676 18.4813 7.8712 18.8068 7.44566 18.7784ZM8.75746 20.5402C8.55984 20.5402 8.37191 20.4656 8.22838 20.3297C7.92371 20.0418 7.90723 19.5565 8.18998 19.2497C8.20465 19.2344 8.50507 18.9166 8.64922 18.7649L8.72489 18.6844C8.87193 18.5293 9.07057 18.4437 9.28428 18.4437C9.48206 18.4437 9.67011 18.5187 9.81336 18.6548C9.96283 18.796 10.0485 18.987 10.0541 19.1929C10.0597 19.3981 9.98492 19.5937 9.84366 19.7428L9.62933 19.9694C9.58351 20.0175 9.53434 20.0696 9.48405 20.1227C9.47606 20.1317 9.46723 20.1406 9.45952 20.149C9.42214 20.1884 9.38906 20.2231 9.3634 20.25C9.34873 20.2658 9.33412 20.2816 9.31905 20.2969C9.31526 20.3008 9.31209 20.3046 9.31209 20.3046C9.16624 20.4566 8.9689 20.5402 8.75746 20.5402ZM10.4767 22.1679C10.3304 22.3199 10.1337 22.4033 9.92239 22.4033C9.7246 22.4033 9.53627 22.3284 9.39314 22.1924C9.08864 21.9044 9.07199 21.4192 9.35383 21.1139C9.36051 21.1066 9.53695 20.9199 9.73689 20.7089L9.88535 20.552C10.1453 20.2768 10.2306 20.1873 10.2593 20.1561C10.2626 20.1531 10.2665 20.1494 10.2693 20.1463C10.2944 20.1191 10.31 20.1032 10.31 20.1032C10.4568 19.948 10.6557 19.8623 10.8696 19.8623C11.0674 19.8623 11.255 19.9372 11.3987 20.0732C11.5481 20.2147 11.6334 20.4058 11.6391 20.6111C11.6447 20.8172 11.5699 21.0126 11.4281 21.1624C11.4145 21.177 10.5065 22.1363 10.4767 22.1679ZM12.9887 22.4356C12.9608 22.8559 12.5959 23.1819 12.1697 23.1539C11.746 23.1257 11.4238 22.7583 11.4518 22.3349C11.4783 21.9311 11.8149 21.6151 12.2188 21.6151C12.2359 21.6151 12.2533 21.6157 12.2704 21.6167C12.6941 21.6446 13.0163 22.012 12.9887 22.4356ZM21.5839 17.8105L15.5905 11.8351L15.658 11.6644C15.693 11.5754 15.6885 11.4702 15.6373 11.3818C15.586 11.2937 15.5001 11.2423 15.4102 11.2376L14.9648 11.2109L14.4782 11.182L14.4412 11.7589C14.4408 11.7709 14.3444 13.0826 13.6755 14.2677C12.9898 15.4838 12.0812 15.9031 11.9428 15.9301C11.788 15.9601 11.6258 15.9886 11.4909 15.9886C11.3983 15.9886 11.327 15.9756 11.2659 15.9476L11.0384 15.8422C10.9429 15.798 10.8702 15.7168 10.8318 15.6133C10.7943 15.5134 10.7948 15.4042 10.8318 15.3046L13.1113 10.3018L13.4989 10.0465L13.6551 9.98698L16.5197 8.89427C16.6998 8.82568 16.8884 8.78972 17.08 8.78796L17.0959 8.78779C17.2818 8.78779 17.466 8.81996 17.6423 8.88351L20.9789 10.0827L23.8245 15.7877L21.5839 17.8105Z" stroke="#A790C6" mask="url(#path-1-inside-1_751:1535)"/>
<path d="M25.7858 15.5698L25.7853 15.5696C25.4798 15.468 25.2452 15.2518 25.1118 14.9847L22.1629 9.07286C22.1629 9.07279 22.1628 9.07271 22.1628 9.07264C22.0298 8.80444 21.9985 8.48705 22.1005 8.18199C22.2027 7.87689 22.4187 7.64203 22.6859 7.50843C22.6859 7.50841 22.6859 7.50839 22.686 7.50837L24.7145 6.49701L28.7037 14.4956L26.6755 15.5076C26.4079 15.641 26.0906 15.672 25.7858 15.5698Z" stroke="#A790C6" stroke-width="0.5"/>
<path d="M7.66393 8.87026L7.66376 8.87051L3.86578 14.277L4.07035 14.4207L3.86578 14.277C3.69416 14.5213 3.43016 14.6997 3.11293 14.7549L3.11273 14.755C2.79552 14.8105 2.4864 14.7325 2.24218 14.5607L2.24205 14.5606L0.387336 13.2576L5.52544 5.94346L7.38038 7.24613C7.38039 7.24614 7.3804 7.24615 7.38041 7.24616C7.38042 7.24617 7.38043 7.24617 7.38044 7.24618C7.62484 7.41795 7.80276 7.68215 7.85861 7.9998C7.91385 8.31685 7.83575 8.62628 7.66393 8.87026Z" stroke="#A790C6" stroke-width="0.5"/>
<circle cx="14.5391" cy="15.0952" r="13.5" stroke="#A790C6" stroke-width="2"/>
</svg>
