<svg width="45" height="41" viewBox="0 0 45 41" fill="none" xmlns="http://www.w3.org/2000/svg">
<rect x="0.556763" y="0.5" width="44" height="40" rx="6" fill="#91AFFF"/>
<path d="M9.08374 17.3043L22.6163 7.68768L36.1489 17.3043H9.08374Z" fill="white"/>
<path d="M12.3273 16.2596L22.6164 8.94763L32.9054 16.2596H12.3273Z" fill="white"/>
<path d="M33.8779 17.3043H11.3549V18.5904H33.8779V17.3043Z" fill="white"/>
<path d="M33.8779 31.0404H11.3549V31.7455H33.8779V31.0404Z" fill="white"/>
<path d="M34.2731 31.739H10.9596V32.444H34.2731V31.739Z" fill="white"/>
<path d="M34.8942 32.4441H10.3322V33.1492H34.8942V32.4441Z" fill="white"/>
<path d="M22.6164 15.4436C23.8776 15.4436 24.9 14.3797 24.9 13.0672C24.9 11.7547 23.8776 10.6908 22.6164 10.6908C21.3551 10.6908 20.3327 11.7547 20.3327 13.0672C20.3327 14.3797 21.3551 15.4436 22.6164 15.4436Z" fill="white"/>
<path d="M32.849 31.0404H30.17L30.5088 24.0744C30.5778 23.1212 30.5778 22.1615 30.5088 21.2084L30.17 18.5904H32.849L32.5102 21.2084C32.4412 22.1615 32.4412 23.1212 32.5102 24.0744L32.849 31.0404Z" fill="white"/>
<path d="M12.3838 31.0404H15.0627L14.7239 24.0744C14.6549 23.1212 14.6549 22.1615 14.7239 21.2084L15.0627 18.5904H12.3838L12.7226 21.2084C12.7916 22.1615 12.7916 23.1212 12.7226 24.0744L12.3838 31.0404Z" fill="white"/>
<path d="M15.2258 18.5904H12.2206V19.178H15.2258V18.5904Z" fill="white"/>
<path d="M30.0108 19.1718H33.016V18.5842H30.0108V19.1718Z" fill="white"/>
<path d="M15.2258 30.4528H12.2206V31.0404H15.2258V30.4528Z" fill="white"/>
<path d="M30.0108 31.0388H33.016V30.4512H30.0108V31.0388Z" fill="white"/>
<path d="M30.9981 15.868H29.116C29.0281 15.868 28.9591 15.7962 28.9591 15.7048C28.9591 15.6134 29.0281 15.5415 29.116 15.5415H30.6468L28.4133 13.9551C28.3443 13.9029 28.3255 13.8049 28.3694 13.7266C28.4196 13.6548 28.5137 13.6352 28.589 13.6809L31.1173 15.4763C31.1926 15.5285 31.224 15.6264 31.1989 15.7178C31.1675 15.8092 31.0922 15.868 30.9981 15.868Z" fill="white"/>
<path d="M28.3318 15.868H26.87C26.7822 15.868 26.7132 15.7962 26.7132 15.7048C26.7132 15.6134 26.7822 15.5416 26.87 15.5416H28.3318C28.4197 15.5416 28.4887 15.6134 28.4887 15.7048C28.4887 15.7962 28.4134 15.868 28.3318 15.868Z" fill="white"/>
<path d="M26.1799 15.868H25.3643C25.2765 15.868 25.2075 15.7962 25.2075 15.7048C25.2075 15.6134 25.2765 15.5416 25.3643 15.5416H26.1799C26.2677 15.5416 26.3367 15.6134 26.3367 15.7048C26.3367 15.7962 26.2677 15.868 26.1799 15.868Z" fill="white"/>
<path d="M32.0898 25.4127C32.0082 25.4127 31.9392 25.3475 31.9329 25.2561C31.8577 23.7414 31.8514 22.3835 31.8514 21.8677C31.8514 21.6914 31.8639 21.5217 31.8827 21.3454L32.0333 20.1181C32.0459 20.0267 32.1212 19.9679 32.209 19.9744C32.2968 19.9875 32.3533 20.0658 32.347 20.1572L32.1964 21.3846C32.1776 21.5413 32.1651 21.7045 32.1651 21.8612C32.1651 22.3704 32.1713 23.7284 32.2466 25.2299C32.2529 25.3213 32.1839 25.3997 32.0961 25.3997C32.0898 25.4127 32.0898 25.4127 32.0898 25.4127Z" fill="white"/>
<path d="M32.2654 27.7696C32.1839 27.7696 32.1149 27.7043 32.1086 27.6129L32.0333 26.0395C32.027 25.9481 32.096 25.8698 32.1839 25.8698C32.2717 25.8633 32.347 25.9351 32.347 26.0265L32.4223 27.5999C32.4285 27.6913 32.3595 27.7696 32.2717 27.7696H32.2654Z" fill="white"/>
<path d="M14.3475 25.4127C14.2659 25.4127 14.1969 25.3475 14.1906 25.2561C14.1153 23.7414 14.1091 22.3835 14.1091 21.8677C14.1091 21.6914 14.1216 21.5217 14.1404 21.3454L14.291 20.1181C14.3036 20.0267 14.3788 19.9679 14.4667 19.9744C14.5545 19.9875 14.611 20.0658 14.6047 20.1572L14.4541 21.3846C14.4353 21.5413 14.4228 21.7045 14.4228 21.8612C14.4228 22.3704 14.429 23.7218 14.5043 25.2299C14.5106 25.3213 14.4416 25.3997 14.3537 25.3997C14.3475 25.4127 14.3475 25.4127 14.3475 25.4127Z" fill="white"/>
<path d="M14.5232 27.7696C14.4416 27.7696 14.3726 27.7043 14.3663 27.6129L14.291 26.0395C14.2848 25.9481 14.3538 25.8698 14.4416 25.8698C14.5295 25.8633 14.6047 25.9351 14.6047 26.0265L14.68 27.5999C14.6863 27.6913 14.6173 27.7696 14.5295 27.7696C14.5232 27.7696 14.5232 27.7696 14.5232 27.7696Z" fill="white"/>
<path d="M13.0927 33.3124H8.71361C8.62577 33.3124 8.55676 33.2406 8.55676 33.1492C8.55676 33.0578 8.62577 32.986 8.71361 32.986H13.0927C13.1806 32.986 13.2496 33.0578 13.2496 33.1492C13.2496 33.2406 13.1806 33.3124 13.0927 33.3124Z" fill="white"/>
<path d="M23.7017 33.3124H14.7301C14.6423 33.3124 14.5733 33.2406 14.5733 33.1492C14.5733 33.0578 14.6423 32.986 14.7301 32.986H23.7017C23.7895 32.986 23.8585 33.0578 23.8585 33.1492C23.8585 33.2406 23.7895 33.3124 23.7017 33.3124Z" fill="white"/>
<path d="M25.8725 33.3124H24.806C24.7181 33.3124 24.6491 33.2406 24.6491 33.1492C24.6491 33.0578 24.7181 32.986 24.806 32.986H25.8725C25.9603 32.986 26.0293 33.0578 26.0293 33.1492C26.0293 33.2406 25.9603 33.3124 25.8725 33.3124Z" fill="white"/>
<path d="M30.1952 33.3124H26.6881C26.6003 33.3124 26.5312 33.2406 26.5312 33.1492C26.5312 33.0578 26.6003 32.986 26.6881 32.986H30.1952C30.283 32.986 30.352 33.0578 30.352 33.1492C30.352 33.2406 30.283 33.3124 30.1952 33.3124Z" fill="white"/>
<path d="M36.3999 33.3124H31.5126C31.4248 33.3124 31.3558 33.2406 31.3558 33.1492C31.3558 33.0578 31.4248 32.986 31.5126 32.986H36.3999C36.4877 32.986 36.5568 33.0578 36.5568 33.1492C36.5568 33.2406 36.4877 33.3124 36.3999 33.3124Z" fill="white"/>
<path fill-rule="evenodd" clip-rule="evenodd" d="M22.5568 28.6877C20.3475 28.6877 18.5568 26.8969 18.5568 24.6877C18.5568 22.4784 20.3475 20.6877 22.5568 20.6877C24.766 20.6877 26.5568 22.4784 26.5568 24.6877C26.5568 26.8969 24.766 28.6877 22.5568 28.6877ZM24.1818 25.4762C24.1818 24.8454 23.7878 24.4892 22.866 24.2672V23.1572C23.151 23.2157 23.4238 23.3384 23.6905 23.5312L24.0303 22.9822C23.6956 22.7371 23.3025 22.584 22.8903 22.5382V22.1877H22.3628V22.5264C21.6048 22.5849 21.0895 23.0172 21.0895 23.6479C21.0895 24.3079 21.5018 24.6292 22.387 24.8512V25.9962C21.9928 25.9377 21.6655 25.7624 21.3198 25.4937L20.9318 26.0252C21.3471 26.3449 21.8419 26.545 22.3628 26.6037V27.1877H22.8903V26.6094C23.6603 26.5452 24.1818 26.1187 24.1818 25.4762ZM22.3868 24.1444C21.92 24.0102 21.805 23.8524 21.805 23.6069C21.805 23.3502 22.005 23.1457 22.387 23.1164L22.3868 24.1444ZM23.4663 25.5169C23.4663 25.7974 23.248 25.9902 22.866 26.0194V24.9622C23.339 25.0967 23.4663 25.2542 23.4663 25.5172V25.5169Z" fill="white"/>
</svg>
