<svg width="30" height="30" viewBox="0 0 30 30" fill="none" xmlns="http://www.w3.org/2000/svg">
<path d="M19.4462 0.538818C17.8167 -0.132134 15.9219 0.656519 15.2509 2.28598L14.9036 3.13401C14.7427 3.1313 14.5821 3.1302 14.4213 3.13401L14.0678 2.29006C13.39 0.663272 11.4932 -0.118565 9.86642 0.559253L7.86587 1.39299C6.23911 2.0708 5.45724 3.96962 6.13506 5.59639L6.48654 6.44033C6.3705 6.55213 6.25871 6.66721 6.14732 6.78364L5.29928 6.4342C3.66983 5.76325 1.77501 6.5519 1.10406 8.18136L0.278504 10.188C-0.392447 11.8175 0.396197 13.7123 2.02566 14.3833L2.85735 14.7266C2.85421 14.8914 2.8563 15.0562 2.85944 15.2211L2.02979 15.5664C0.403039 16.2443 -0.378835 18.141 0.298979 19.7678L1.13272 21.7683C1.81053 23.3951 3.70935 24.177 5.33612 23.4991L6.14737 23.162C6.26487 23.2845 6.38438 23.4042 6.50702 23.5216L6.17394 24.3349C5.50299 25.9644 6.29163 27.8592 7.92109 28.5302L9.92777 29.3557C11.5572 30.0267 13.452 29.238 14.123 27.6086L14.452 26.8075C14.6258 26.8111 14.7993 26.8116 14.9731 26.8075L15.3062 27.6045C15.984 29.2312 17.8808 30.0131 19.5075 29.3353L21.5081 28.5015C23.1348 27.8237 23.9167 25.9249 23.2389 24.2981L22.9078 23.5032C23.0335 23.3822 23.1555 23.2578 23.2757 23.1313L24.0747 23.4603C25.7041 24.1313 27.5989 23.3426 28.2699 21.7132L29.0954 19.7065C29.7664 18.077 28.9777 16.1822 27.3483 15.5113L26.537 15.1782C26.5402 15.0077 26.5374 14.8378 26.5328 14.6673L27.3441 14.3281C28.9709 13.6503 29.7527 11.7535 29.0749 10.1267L28.2412 8.12619C27.5634 6.49944 25.6646 5.71756 24.0378 6.39538L23.2082 6.74072C23.0935 6.6223 22.9763 6.50688 22.8567 6.39334L23.2 5.5596C23.871 3.93014 23.0823 2.03533 21.4529 1.36438L19.4462 0.538818ZM18.6492 2.47397L20.6559 3.29953C21.2471 3.54299 21.5103 4.17345 21.2669 4.76469L20.6579 6.24212C20.4833 6.66538 20.6043 7.153 20.9563 7.44571C21.3962 7.81088 21.8026 8.21312 22.1721 8.64931C22.4666 8.99755 22.9527 9.11495 23.3737 8.93949L24.8429 8.32645C25.433 8.08057 26.0642 8.34115 26.3102 8.93131L27.1439 10.9319C27.3898 11.522 27.1291 12.1511 26.539 12.397L25.0861 13.0039C24.6634 13.18 24.4042 13.6105 24.4465 14.0665C24.5002 14.6406 24.5027 15.2187 24.4549 15.7933C24.4414 15.9599 24.468 16.1274 24.5325 16.2816V16.2837C24.6392 16.5404 24.8436 16.744 25.1006 16.8498L26.5515 17.4465C27.1427 17.6899 27.4039 18.3183 27.1604 18.9096L26.3349 20.9163C26.0914 21.5075 25.4609 21.7707 24.8697 21.5273L23.4291 20.9326C23.0058 20.758 22.5182 20.8789 22.2255 21.231C21.8547 21.6775 21.4453 22.0912 21.0014 22.4652C20.6525 22.7592 20.5342 23.2454 20.7092 23.6668L21.3079 25.1033C21.5538 25.6934 21.2932 26.3246 20.7031 26.5705L18.7023 27.4042C18.1122 27.6501 17.4831 27.3894 17.2372 26.7993L16.6384 25.3607C16.4626 24.9388 16.0332 24.6798 15.5779 24.7211C15.0001 24.7735 14.4189 24.7757 13.841 24.7252C13.3854 24.6854 12.9567 24.9461 12.7824 25.3689L12.1878 26.8116C11.9443 27.4028 11.3159 27.664 10.7247 27.4205L8.71799 26.595C8.12676 26.3515 7.86355 25.7211 8.107 25.1298L8.70573 23.6769C8.87878 23.2552 8.75888 22.77 8.40943 22.4774C7.96713 22.1072 7.55986 21.6976 7.18948 21.2554C6.89542 20.9039 6.4068 20.7846 5.98384 20.9612L4.53094 21.5681C3.94085 21.814 3.30961 21.5533 3.06374 20.9632L2.23 18.9627C1.98414 18.3726 2.24476 17.7434 2.83487 17.4975L4.30412 16.8845C4.72534 16.7089 4.98416 16.2805 4.94372 15.826C4.89329 15.2561 4.89204 14.6834 4.94163 14.1135C4.98139 13.6579 4.72077 13.2293 4.29793 13.055L2.82256 12.4481C2.23131 12.2047 1.97015 11.5762 2.2136 10.985L3.03917 8.97831C3.28267 8.38707 3.91313 8.12387 4.50438 8.36732L5.99201 8.98036C6.41384 9.15488 6.90013 9.03579 7.19357 8.6861C7.55818 8.25042 7.96061 7.84645 8.39513 7.48046C8.74336 7.18597 8.86077 6.69986 8.6853 6.2789L8.06614 4.79126C7.82026 4.20116 8.08089 3.56993 8.671 3.32406L10.6715 2.49032C11.2616 2.24445 11.8909 2.50511 12.1367 3.09519L12.7559 4.58283C12.9324 5.00401 13.3617 5.26208 13.8164 5.22039C14.382 5.16903 14.9507 5.167 15.5166 5.21426C16.0871 5.21841 16.3799 4.97046 16.5731 4.57057L17.1861 3.08293C17.4994 2.38342 18.0989 2.24734 18.6492 2.47397Z" fill="black"/>
<path d="M14.6867 8.66974C11.2321 8.66974 8.40918 11.4927 8.40918 14.9473C8.40918 18.4018 11.2321 21.2248 14.6867 21.2248C18.1413 21.2248 20.9642 18.4018 20.9642 14.9473C20.9642 11.4927 18.1413 8.66974 14.6867 8.66974ZM14.6867 10.7622C17.0104 10.7622 18.8717 12.6235 18.8717 14.9473C18.8717 17.271 17.0104 19.1323 14.6867 19.1323C12.363 19.1323 10.5017 17.271 10.5017 14.9473C10.5017 12.6235 12.363 10.7622 14.6867 10.7622Z" fill="black"/>
</svg>
