<svg width="31" height="31" viewBox="0 0 31 31" fill="none" xmlns="http://www.w3.org/2000/svg">
<path d="M10.8137 16.5292H7.48466C7.30808 16.5292 7.13872 16.5993 7.01386 16.7242C6.889 16.8491 6.81885 17.0184 6.81885 17.195V23.8531C6.81885 24.0297 6.889 24.1991 7.01386 24.3239C7.13872 24.4488 7.30808 24.5189 7.48466 24.5189H10.8137C10.9903 24.5189 11.1597 24.4488 11.2845 24.3239C11.4094 24.1991 11.4795 24.0297 11.4795 23.8531V17.195C11.4795 17.0184 11.4094 16.8491 11.2845 16.7242C11.1597 16.5993 10.9903 16.5292 10.8137 16.5292ZM10.1479 23.1873H8.15047V17.8608H10.1479V23.1873Z" fill="black"/>
<path d="M17.1387 11.8685H13.8096C13.633 11.8685 13.4637 11.9387 13.3388 12.0635C13.2139 12.1884 13.1438 12.3578 13.1438 12.5343V23.8532C13.1438 24.0297 13.2139 24.1991 13.3388 24.324C13.4637 24.4488 13.633 24.519 13.8096 24.519H17.1387C17.3153 24.519 17.4846 24.4488 17.6095 24.324C17.7343 24.1991 17.8045 24.0297 17.8045 23.8532V12.5343C17.8045 12.3578 17.7343 12.1884 17.6095 12.0635C17.4846 11.9387 17.3153 11.8685 17.1387 11.8685ZM16.4729 23.1873H14.4754V13.2002H16.4729V23.1873Z" fill="black"/>
<path d="M23.4646 7.20782H20.1355C19.959 7.20782 19.7896 7.27797 19.6647 7.40284C19.5399 7.5277 19.4697 7.69705 19.4697 7.87364V23.8531C19.4697 24.0297 19.5399 24.1991 19.6647 24.3239C19.7896 24.4488 19.959 24.519 20.1355 24.519H23.4646C23.6412 24.519 23.8105 24.4488 23.9354 24.3239C24.0603 24.1991 24.1304 24.0297 24.1304 23.8531V7.87364C24.1304 7.69705 24.0603 7.5277 23.9354 7.40284C23.8105 7.27797 23.6412 7.20782 23.4646 7.20782ZM22.7988 23.1873H20.8014V8.53945H22.7988V23.1873Z" fill="black"/>
<path d="M15.4743 1.21552C12.5772 1.21552 9.74521 2.0746 7.33638 3.68413C4.92755 5.29366 3.05009 7.58135 1.94143 10.2579C0.832763 12.9344 0.542686 15.8796 1.10788 18.7211C1.67307 21.5625 3.06815 24.1725 5.11669 26.221C7.16523 28.2696 9.77524 29.6646 12.6166 30.2298C15.4581 30.795 18.4033 30.5049 21.0798 29.3963C23.7564 28.2876 26.044 26.4102 27.6536 24.0013C29.2631 21.5925 30.1222 18.7605 30.1222 15.8634C30.1178 11.9799 28.5731 8.2567 25.8271 5.51065C23.081 2.76459 19.3578 1.21992 15.4743 1.21552ZM15.4743 29.1797C12.8406 29.1797 10.266 28.3987 8.07619 26.9355C5.88634 25.4723 4.17956 23.3925 3.17169 20.9593C2.16381 18.5261 1.90011 15.8486 2.41392 13.2655C2.92773 10.6824 4.19598 8.30969 6.05829 6.44738C7.9206 4.58507 10.2933 3.31682 12.8764 2.80301C15.4595 2.2892 18.137 2.5529 20.5702 3.56078C23.0034 4.56866 25.0832 6.27544 26.5464 8.46528C28.0096 10.6551 28.7906 13.2297 28.7906 15.8634C28.7865 19.3938 27.3823 22.7785 24.8858 25.2749C22.3894 27.7713 19.0048 29.1756 15.4743 29.1797Z" fill="black" stroke="black" stroke-width="0.56338"/>
</svg>
